<svg xmlns="http://www.w3.org/2000/svg" viewBox="0 0 21.6 19.03"><defs><style>.cls-1{fill:#394144;}.cls-2{fill:#ffd80e;}.cls-3{fill:#ff4d00;}.cls-4{fill:#fff;}</style></defs><g id="Layer_2" data-name="Layer 2"><g id="Favicon"><path class="cls-1" d="M17.39,13c-.19,1.17-4,2.54-8.26,1.86s-7.47-3.16-7.28-4.33L2.94,3.61C4.66,1.74,8,4,10.78,4.46s6.68-.72,7.71,1.63Z"/><path d="M9.87,9a.33.33,0,0,1-.27-.06L.51,2.56a.36.36,0,0,1-.15-.37.36.36,0,0,1,.28-.26S11.32.36,11.32.36a.37.37,0,0,1,.23,0L21.07,6a.35.35,0,0,1-.1.65Z"/><path d="M21.25,5.7,11.73.1A.68.68,0,0,0,11.27,0L.61,1.57h0A.71.71,0,0,0,0,2.11a.69.69,0,0,0,.28.74L9.4,9.2a.75.75,0,0,0,.55.12h0L21,7a.69.69,0,0,0,.55-.58A.68.68,0,0,0,21.25,5.7ZM9.8,8.62.71,2.27,11.37.71l9.52,5.6Z"/><path class="cls-2" d="M19.65,17a.35.35,0,0,1-.42-.27L17.69,9.3,10.58,4.76a.35.35,0,0,1-.1-.49A.36.36,0,0,1,11,4.16L18.2,8.78a.38.38,0,0,1,.16.23l1.56,7.53A.35.35,0,0,1,19.65,17Z"/><path class="cls-3" d="M21.35,17.57a1,1,0,0,1-.78,1.22l-1,.22a1,1,0,0,1-1.23-.78L18,16.84c-.12-.55,0-2.1.56-2.22l1-.22c.55-.13,1.32,1.23,1.44,1.78Z"/><path class="cls-4" d="M7.87,12.84a1.33,1.33,0,0,1-.28,0,1,1,0,0,1-.54-.31.78.78,0,0,1-.15-.66,1.64,1.64,0,0,1,.22-.56,2,2,0,0,1,.36-.4,1.33,1.33,0,0,1,.46-.23,1.08,1.08,0,0,1,.3,0h.17a.53.53,0,0,1,.33.18.44.44,0,0,1,.09.37.65.65,0,0,1-.16.32.41.41,0,0,1-.27.12.48.48,0,0,1-.31-.16s0,.05,0,.09a1,1,0,0,0-.15.4A.19.19,0,0,0,8,12l.09,0,.19-.1.17-.13a.4.4,0,0,1,.24-.1l.09,0,.14.1A.31.31,0,0,1,9,12a.7.7,0,0,1-.14.32,1,1,0,0,1-.28.27,1.33,1.33,0,0,1-.42.18A.75.75,0,0,1,7.87,12.84Z"/><path class="cls-3" d="M8.71,11.86s.06.05,0,.13a1,1,0,0,1-.11.23.81.81,0,0,1-.23.22,1.06,1.06,0,0,1-.34.15,1.13,1.13,0,0,1-.45,0,.72.72,0,0,1-.41-.24.52.52,0,0,1-.1-.46,1.43,1.43,0,0,1,.19-.49,1.27,1.27,0,0,1,.31-.34,1.16,1.16,0,0,1,.38-.2.94.94,0,0,1,.37,0c.19,0,.27.14.24.29a.38.38,0,0,1-.1.2.14.14,0,0,1-.12.05.19.19,0,0,1-.12-.07.16.16,0,0,0-.12-.08.16.16,0,0,0-.14,0,.41.41,0,0,0-.14.15,1.44,1.44,0,0,0-.18.47.25.25,0,0,0,.09.23A.33.33,0,0,0,8,12.2a.31.31,0,0,0,.23,0,.94.94,0,0,0,.22-.12l.19-.13A.24.24,0,0,1,8.71,11.86Z"/><path class="cls-4" d="M10,13.27l-.17,0a.42.42,0,0,1-.3-.23,1,1,0,0,1-.41.09.83.83,0,0,1-.22,0,.76.76,0,0,1-.65-.95A1.47,1.47,0,0,1,9,11.07a1.09,1.09,0,0,1,.61-.17h.2L10,11a2.31,2.31,0,0,1,.52-.78.43.43,0,0,1,.27-.1.47.47,0,0,1,.41.33.65.65,0,0,1,.05.35,1,1,0,0,1-.09.24l-.12.18-.13.14-.1.1a5.58,5.58,0,0,0-.31.8l0,.1.21-.14a.38.38,0,0,1,.24-.1l.09,0,.13.1a.45.45,0,0,1,0,.34.64.64,0,0,1-.17.31,1.34,1.34,0,0,1-.69.4Zm-.38-1.53-.11.07a.55.55,0,0,0-.25.4c0,.07,0,.09,0,.09l.12-.05a.4.4,0,0,0,.17-.19A3,3,0,0,1,9.66,11.74Z"/><path class="cls-3" d="M10.89,12.3s.06.07,0,.18a.38.38,0,0,1-.12.21,1,1,0,0,1-.25.21,1.75,1.75,0,0,1-.32.12.65.65,0,0,1-.31,0c-.14,0-.21-.15-.2-.39a.78.78,0,0,1-.74.23.6.6,0,0,1-.4-.26.54.54,0,0,1-.08-.43,1.32,1.32,0,0,1,.63-.92.92.92,0,0,1,.65-.13,1.15,1.15,0,0,1,.22.07l.08,0a2.52,2.52,0,0,1,.55-.89.18.18,0,0,1,.15-.06c.08,0,.14.08.18.19a.41.41,0,0,1,0,.23l-.06.17-.1.15-.12.12-.12.12a6.72,6.72,0,0,0-.35.88,2.18,2.18,0,0,1-.06.22c0,.17,0,.27,0,.28a1.45,1.45,0,0,0,.55-.3C10.83,12.31,10.87,12.29,10.89,12.3Zm-1.81-.13q-.06.28.15.33a.41.41,0,0,0,.28-.05.61.61,0,0,0,.27-.28,4.94,4.94,0,0,1,.22-.73,1,1,0,0,0-.58.19A.78.78,0,0,0,9.08,12.17Z"/><path class="cls-4" d="M11,13.49c-.27-.05-.31-.41-.33-.56a4,4,0,0,1,0-1,1,1,0,0,1,.22-.63.47.47,0,0,1,.36-.14l.19,0a.39.39,0,0,1,.27.19.34.34,0,0,1,.05.28v0a.76.76,0,0,1,.08-.11.57.57,0,0,1,.41-.17l.13,0a.47.47,0,0,1,.42.38.88.88,0,0,1,0,.23,1,1,0,0,1-.16.35,2.61,2.61,0,0,1-.17.2.06.06,0,0,0,.05,0l.14-.09.13,0,.08,0,.14.09a.39.39,0,0,1,0,.29.64.64,0,0,1-.65.54.52.52,0,0,1-.17,0,.74.74,0,0,1-.38-.2,1.28,1.28,0,0,1-.73.32H11Zm.52-1,.07-.09a2,2,0,0,1,0-.25l-.05.12C11.52,12.32,11.49,12.47,11.49,12.47Z"/><path class="cls-3" d="M11.51,11.63a2.19,2.19,0,0,1-.2.55,1.57,1.57,0,0,1,0,.23,1.68,1.68,0,0,0,0,.2c0,.11.05.18.1.21s.12,0,.19-.1a2.27,2.27,0,0,0,.25-.27,1.17,1.17,0,0,1,0-.33.8.8,0,0,1,.16-.38.34.34,0,0,1,.34-.09.25.25,0,0,1,.24.21.33.33,0,0,1,0,.14.76.76,0,0,1-.12.26c-.07.08-.16.19-.29.32s.07.23.16.24a.43.43,0,0,0,.31-.06l.09-.06a.11.11,0,0,1,.07,0s.05.05,0,.13a.44.44,0,0,1-.2.32.6.6,0,0,1-.36,0,.5.5,0,0,1-.37-.32c-.37.32-.65.46-.85.42s-.13-.14-.16-.37a4.76,4.76,0,0,1,0-.93.82.82,0,0,1,.16-.5c.07-.07.18-.08.34-.05a.2.2,0,0,1,.13.08A.19.19,0,0,1,11.51,11.63Z"/></g></g></svg>